<?xml version="1.0" encoding="utf-8"?>
<!-- Generator: Adobe Illustrator 19.0.0, SVG Export Plug-In . SVG Version: 6.00 Build 0)  -->
<svg version="1.1" id="Capa_2" xmlns="http://www.w3.org/2000/svg" xmlns:xlink="http://www.w3.org/1999/xlink" x="0px" y="0px"
	 viewBox="-451 273 53 18" style="enable-background:new -451 273 53 18;" xml:space="preserve">
<style type="text/css">
	.st0{fill:#787777;}
</style>
<g>
	<g>
		<path class="st0" d="M-444.614,290.779H-451v-17.006h6.386c5.108,0,8.727,3.644,8.727,8.503l0,0
			C-435.888,287.025-439.506,290.779-444.614,290.779z M-439.719,282.276c0-2.982-2.022-5.08-4.896-5.08h-2.767v10.16h2.767
			C-441.635,287.356-439.719,285.258-439.719,282.276L-439.719,282.276z"/>
		<path class="st0" d="M-427.374,281.282c-2.341,0-3.831,1.436-3.831,4.638v4.859h-3.512v-13.031h3.512v2.65
			c0.745-1.877,1.916-2.982,4.044-2.982v3.865H-427.374z"/>
		<path class="st0" d="M-426.629,276.313V273h3.725v3.313H-426.629z M-426.522,290.779v-13.031h3.512v13.031H-426.522z"/>
		<path class="st0" d="M-414.283,290.89h-3.193l-5.002-13.141h3.725l2.767,8.724l2.874-8.724h3.725L-414.283,290.89z"/>
		<path class="st0" d="M-398,285.479h-8.727c0.319,1.656,1.49,2.54,3.086,2.54c1.171,0,2.022-0.442,3.086-1.325l2.022,1.877
			c-1.171,1.546-2.873,2.429-5.108,2.429c-3.725,0-6.598-2.761-6.598-6.736l0,0c0-3.755,2.554-6.736,6.173-6.736
			c4.151,0,6.066,3.423,6.066,7.067l0,0C-398,284.926-398,285.147-398,285.479z M-404.066,280.399c-1.49,0-2.448,1.104-2.767,2.761
			h5.321C-401.618,281.503-402.576,280.399-404.066,280.399z"/>
	</g>
</g>
</svg>
