<svg id="Capa_1" xmlns="http://www.w3.org/2000/svg" viewBox="-223 24 18 18"><style>.st0{fill:#444444;}</style><path class="st0" d="M-214 35.79c-.63 0-1.17.542-1.17 1.172s.54 1.17 1.17 1.17 1.17-.54 1.17-1.17c-.09-.633-.54-1.17-1.17-1.17z"/><path class="st0" d="M-214 24c-4.95 0-9 4.05-9 9s4.05 9 9 9 9-4.05 9-9-4.05-9-9-9zm0 16.92c-4.41 0-7.92-3.508-7.92-7.92 0-4.32 3.6-7.92 7.92-7.92s7.92 3.51 7.92 7.92c0 4.32-3.51 7.92-7.92 7.92z"/><path class="st0" d="M-214 34.71c.27 0 .54-.272.54-.542v-5.576c0-.27-.27-.54-.54-.54s-.54.27-.54.54v5.58c0 .27.27.537.54.537z"/></svg>