<svg id="Capa_2" xmlns="http://www.w3.org/2000/svg" viewBox="-451 273 53 18"><style>.st0{fill:#787777;}</style><path class="st0" d="M-444.614 290.78H-451v-17.007h6.386c5.108 0 8.727 3.644 8.727 8.503 0 4.75-3.62 8.503-8.727 8.503zm4.895-8.504c0-2.982-2.02-5.08-4.895-5.08h-2.767v10.16h2.767c2.98 0 4.896-2.098 4.896-5.08zM-427.374 281.282c-2.34 0-3.83 1.436-3.83 4.638v4.86h-3.513v-13.032h3.512v2.65c.745-1.877 1.916-2.982 4.044-2.982v3.865h-.214zM-426.63 276.313V273h3.726v3.313h-3.725zm.108 14.466v-13.032h3.512v13.03h-3.512zM-414.283 290.89h-3.193l-5.002-13.14h3.725l2.767 8.723 2.874-8.724h3.725l-4.896 13.14zM-398 285.48h-8.727c.32 1.655 1.49 2.54 3.086 2.54 1.17 0 2.02-.443 3.085-1.326l2.022 1.877c-1.17 1.547-2.873 2.43-5.108 2.43-3.726 0-6.6-2.76-6.6-6.736 0-3.755 2.555-6.736 6.174-6.736 4.15 0 6.066 3.423 6.066 7.067v.884zm-6.066-5.08c-1.49 0-2.448 1.103-2.767 2.76h5.32c-.105-1.657-1.063-2.76-2.553-2.76z"/></svg>